<svg viewBox="0 0 105 105" fill="none" xmlns="http://www.w3.org/2000/svg"><circle cx="53" cy="53" r="45.54" fill="#EEE"/><path fill-rule="evenodd" clip-rule="evenodd" d="M15.338 81.79a1.313 1.313 0 0 1-1.313-1.312v-54.82c0-.724.588-1.312 1.313-1.312h73.967c.724 0 1.312.588 1.312 1.313v54.819c0 .725-.588 1.312-1.312 1.312H15.338Z" fill="#fff"/><mask id="a" fill="#fff"><path fill-rule="evenodd" clip-rule="evenodd" d="M64.452 49.418V24.246h-24.32v25.172l6.156-5.965 5.946 5.965 6.258-5.965 5.96 5.965Zm-42.95 22.201h16.245V61.197H21.502v10.422Z"/></mask><path fill-rule="evenodd" clip-rule="evenodd" d="M64.452 49.418V24.246h-24.32v25.172l6.156-5.965 5.946 5.965 6.258-5.965 5.96 5.965Zm-42.95 22.201h16.245V61.197H21.502v10.422Z" fill="#FFE600"/><path d="M64.452 24.246h3.937v-3.938h-3.937v3.938Zm0 25.172L61.666 52.2l6.723 6.73v-9.513h-3.937Zm-24.32-25.172v-3.938h-3.938v3.938h3.938Zm0 25.172h-3.938v9.297l6.678-6.47-2.74-2.827Zm6.156-5.965 2.789-2.78-2.74-2.75-2.789 2.702 2.74 2.828Zm5.946 5.965-2.79 2.78 2.719 2.727 2.787-2.657-2.716-2.85Zm6.258-5.965 2.786-2.783-2.718-2.72-2.784 2.652 2.716 2.85ZM37.748 71.619v3.938h3.937v-3.938h-3.937Zm-16.245 0h-3.937v3.938h3.937v-3.938Zm16.245-10.422h3.937v-3.938h-3.937v3.938Zm-16.245 0v-3.938h-3.937v3.938h3.937Zm39.012-36.951v25.172h7.875V24.246h-7.875Zm-20.382 3.937h24.32v-7.875h-24.32v7.875Zm3.937 4.241v-8.178h-7.875v8.178h7.875Zm0 16.994V32.424h-7.875v16.994h7.875Zm-.52-8.793-6.157 5.965 5.48 5.656 6.156-5.965-5.48-5.656Zm11.473 6.013-5.945-5.965-5.578 5.56 5.946 5.965 5.577-5.56Zm.754-6.035-6.259 5.965 5.433 5.7 6.259-5.965-5.433-5.7Zm11.461 6.032-5.959-5.965-5.571 5.566 5.96 5.965 5.57-5.566Zm-29.49 21.047H21.502v7.875h16.245v-7.875Zm-3.938-6.485v10.422h7.875V61.197H33.81Zm-12.307 3.937h16.245V57.26H21.502v7.875Zm3.938 6.485V61.197h-7.875v10.422h7.875Z" fill="#fff" mask="url(#a)"/><path stroke="#333" stroke-width="1.969" d="M37.747 71.62H21.502V61.197h16.245z"/><path fill="#EEE" d="M14.025 76.232h76.582v5.529H14.025z"/><path clip-rule="evenodd" d="M64.452 24.246v25.172l-5.96-5.965-6.258 5.965-5.946-5.965-6.156 5.965V24.246h24.32Z" stroke="#333" stroke-width="1.969"/><path d="M14.025 45.125v35.353c0 .725.588 1.312 1.313 1.312h73.967c.724 0 1.312-.588 1.312-1.312v-7.79M14.025 39.874V25.659c0-.725.588-1.313 1.313-1.313h73.967c.724 0 1.312.588 1.312 1.313V58.25m0 5.25v3.938" stroke="#333" stroke-width="1.969"/><circle cx="90.607" cy="24.246" r="8.531" fill="#fff" stroke="#fff" stroke-width="3.938"/><circle cx="90.607" cy="24.246" r="10.5" stroke="#333" stroke-width="1.969"/><path d="m86.114 24.433 2.882 3 6.125-6.375" stroke="#333" stroke-width="1.969"/></svg>