<svg xmlns="http://www.w3.org/2000/svg" fill="none" viewBox="0 0 105 105"><circle cx="53" cy="53" r="45.54" fill="#EEE"/><rect width="89.311" height="58.59" x="8.375" y="31.454" fill="#fff" stroke="#fff" stroke-width="3.938" rx="4.594"/><path stroke="#333" stroke-width="1.969" d="M99.655 68.094V36.048a6.56 6.56 0 0 0-6.563-6.562H12.97a6.56 6.56 0 0 0-6.563 6.562v49.403a6.56 6.56 0 0 0 6.563 6.563h80.108a6.563 6.563 0 0 0 6.563-6.578l-.008-3.56m.046-9.188-.023 4.593m-93.449-.306 93.249-19.236M7.084 38.519l33.067 31.414m32.467-6.456 12.069 28.148m-1.652-61.754L67.99 65.246"/><path fill="#FFE600" stroke="#fff" stroke-width="3.938" d="M33.653 27.552c0-10.477 8.614-19.034 19.244-19.034S72.14 17.075 72.14 27.552c0 2.345-1.049 5.423-2.874 8.908-1.797 3.432-4.224 7.031-6.712 10.354-3.95 5.275-7.97 9.743-9.657 11.569-1.688-1.826-5.709-6.294-9.658-11.569-2.488-3.323-4.915-6.922-6.712-10.354-1.825-3.485-2.874-6.563-2.874-8.908Z"/><ellipse cx="53.031" cy="25.642" fill="#fff" stroke="#333" stroke-width="1.969" rx="8.571" ry="8.486"/><path stroke="#333" stroke-width="1.969" d="M34.709 16.751a20.7 20.7 0 0 0-3.025 10.8c0 11.338 19.747 32.162 20.587 33.045a.873.873 0 0 0 1.251 0c.84-.883 20.587-21.707 20.587-33.044 0-11.583-9.514-21.002-21.212-21.002a21.25 21.25 0 0 0-14.907 6.072"/></svg>