<svg xmlns="http://www.w3.org/2000/svg" fill="none" viewBox="0 0 105 105"><circle cx="53" cy="53" r="45.54" fill="#EEE"/><rect width="38.396" height="47.058" x="59.981" y="9.031" fill="#fff" stroke="#333" stroke-width="1.969" rx="3.938" transform="rotate(64.16 59.981 9.031)"/><rect width="38.396" height="47.058" x="70.246" y="12.231" fill="#fff" stroke="#333" stroke-width="1.969" rx="3.938" transform="rotate(64.16 70.246 12.231)"/><path fill="#FFE600" stroke="#fff" stroke-width="3.938" d="M16.25 88.858V34.316h62.208a7.93 7.93 0 0 1 7.928 7.928V80.93a7.93 7.93 0 0 1-7.928 7.927z"/><path stroke="#333" stroke-width="1.969" d="M78.458 90.826H16.081a1.8 1.8 0 0 1-1.8-1.8V47.095m0-5.25v-7.697a1.8 1.8 0 0 1 1.8-1.8h62.377c5.466 0 9.896 4.431 9.896 9.897V80.93q0 .478-.044.945m-1.841 4.867a10 10 0 0 1-2.625 2.492"/><path fill="#fff" stroke="#fff" stroke-width="3.938" d="M50.463 54.463h39.954v15.412H50.463a7.706 7.706 0 1 1 0-15.412Z"/><path stroke="#333" stroke-width="1.969" d="M40.789 62.17a9.673 9.673 0 0 1 9.674-9.675h41.922v19.349H50.463c-5.343 0-9.675-4.332-9.675-9.675Z"/><circle cx="51.318" cy="62.169" r="2.487" fill="#333"/></svg>