<svg xmlns="http://www.w3.org/2000/svg" fill="none" viewBox="0 0 105 105"><circle cx="53" cy="53" r="45.54" fill="#EEE"/><path fill="#FFE600" stroke="#fff" stroke-width="3.938" d="M6.118 26.803h92.455V85.69c0 .79-.608 1.33-1.235 1.33H7.353c-.628 0-1.235-.54-1.235-1.33z"/><path stroke="#333" stroke-width="1.969" d="M4.15 49.063V85.69c0 1.822 1.433 3.3 3.203 3.3h89.985c1.77 0 3.204-1.478 3.204-3.3v-1.847M4.149 44.018V24.834h96.393v44.47m0 5.352v3.938"/><path fill="#fff" fill-rule="evenodd" stroke="#333" stroke-width="1.969" d="M7.353 15.594h90.003c1.77 0 3.203 1.516 3.203 3.387v5.62H4.149v-5.62c0-1.87 1.435-3.387 3.204-3.387Z" clip-rule="evenodd"/><circle cx="11.052" cy="20.098" r="1.525" fill="#333"/><circle cx="17.891" cy="20.098" r="1.525" fill="#333"/><circle cx="24.982" cy="20.098" r="1.525" fill="#333"/><path fill="#fff" stroke="#fff" stroke-width="3.938" d="M69.136 56.912c0 9.445-7.544 17.055-16.79 17.055-9.248 0-16.791-7.61-16.791-17.055s7.543-17.054 16.79-17.054 16.79 7.61 16.79 17.054Z"/><ellipse cx="52.345" cy="56.912" stroke="#333" stroke-width="1.969" rx="18.759" ry="19.023"/><path stroke="#333" stroke-width="1.969" d="M44.149 66.468v-.91a4.49 4.49 0 0 1 4.49-4.491h7.389a4.514 4.514 0 0 1 4.513 4.514v.91"/><path stroke="#333" stroke-width="1.969" d="M52.352 47.333a5.52 5.52 0 1 1 0 11.04 5.52 5.52 0 0 1 0-11.04Z" clip-rule="evenodd"/></svg>